<mxfile host="app.diagrams.net" modified="2023-02-03T17:09:49.170Z" agent="5.0 (Windows NT 10.0; Win64; x64) AppleWebKit/537.36 (KHTML, like Gecko) Chrome/109.0.0.0 Safari/537.36" etag="z8FwV2OB1H6IVmT__00m" version="20.8.15" type="github">
  <diagram name="Page-1" id="5lp_e6UEVkbKhjoR41Cm">
    <mxGraphModel dx="1432" dy="1467" grid="1" gridSize="10" guides="1" tooltips="1" connect="1" arrows="1" fold="1" page="1" pageScale="1" pageWidth="827" pageHeight="1169" math="0" shadow="0">
      <root>
        <mxCell id="0" />
        <mxCell id="1" parent="0" />
        <mxCell id="_PAgTlhUZ0fEvrbNNXJB-1" value="AWS Step Functions workflow" style="points=[[0,0],[0.25,0],[0.5,0],[0.75,0],[1,0],[1,0.25],[1,0.5],[1,0.75],[1,1],[0.75,1],[0.5,1],[0.25,1],[0,1],[0,0.75],[0,0.5],[0,0.25]];outlineConnect=0;gradientColor=none;html=1;whiteSpace=wrap;fontSize=12;fontStyle=0;container=1;pointerEvents=0;collapsible=0;recursiveResize=0;shape=mxgraph.aws4.group;grIcon=mxgraph.aws4.group_aws_step_functions_workflow;strokeColor=#CD2264;fillColor=none;verticalAlign=top;align=left;spacingLeft=30;fontColor=#CD2264;dashed=0;" vertex="1" parent="1">
          <mxGeometry x="90" y="100" width="2900" height="810" as="geometry" />
        </mxCell>
        <mxCell id="_PAgTlhUZ0fEvrbNNXJB-58" value="" style="rounded=1;whiteSpace=wrap;html=1;strokeColor=#006EAF;fontSize=14;fillColor=none;fontColor=#ffffff;" vertex="1" parent="_PAgTlhUZ0fEvrbNNXJB-1">
          <mxGeometry x="650" y="392.25" width="2060" height="372.5" as="geometry" />
        </mxCell>
        <mxCell id="_PAgTlhUZ0fEvrbNNXJB-2" value="" style="outlineConnect=0;dashed=0;verticalLabelPosition=bottom;verticalAlign=top;align=center;html=1;shape=mxgraph.aws3.lambda_function;fillColor=#F58534;gradientColor=none;" vertex="1" parent="_PAgTlhUZ0fEvrbNNXJB-1">
          <mxGeometry x="230.5" y="198.5" width="69" height="72" as="geometry" />
        </mxCell>
        <mxCell id="_PAgTlhUZ0fEvrbNNXJB-4" value="" style="sketch=0;points=[[0,0,0],[0.25,0,0],[0.5,0,0],[0.75,0,0],[1,0,0],[0,1,0],[0.25,1,0],[0.5,1,0],[0.75,1,0],[1,1,0],[0,0.25,0],[0,0.5,0],[0,0.75,0],[1,0.25,0],[1,0.5,0],[1,0.75,0]];outlineConnect=0;fontColor=#232F3E;gradientColor=#4D72F3;gradientDirection=north;fillColor=#3334B9;strokeColor=#ffffff;dashed=0;verticalLabelPosition=bottom;verticalAlign=top;align=center;html=1;fontSize=12;fontStyle=0;aspect=fixed;shape=mxgraph.aws4.resourceIcon;resIcon=mxgraph.aws4.redshift;" vertex="1" parent="_PAgTlhUZ0fEvrbNNXJB-1">
          <mxGeometry x="226" y="38.5" width="78" height="78" as="geometry" />
        </mxCell>
        <mxCell id="_PAgTlhUZ0fEvrbNNXJB-7" value="" style="edgeStyle=orthogonalEdgeStyle;rounded=0;orthogonalLoop=1;jettySize=auto;html=1;" edge="1" parent="_PAgTlhUZ0fEvrbNNXJB-1" source="_PAgTlhUZ0fEvrbNNXJB-6" target="_PAgTlhUZ0fEvrbNNXJB-2">
          <mxGeometry relative="1" as="geometry" />
        </mxCell>
        <mxCell id="_PAgTlhUZ0fEvrbNNXJB-6" value="Redshift Consumer Gov Global/US" style="text;strokeColor=none;align=center;fillColor=none;html=1;verticalAlign=middle;whiteSpace=wrap;rounded=0;" vertex="1" parent="_PAgTlhUZ0fEvrbNNXJB-1">
          <mxGeometry x="160" y="116.5" width="210" height="30" as="geometry" />
        </mxCell>
        <mxCell id="_PAgTlhUZ0fEvrbNNXJB-10" value="" style="edgeStyle=orthogonalEdgeStyle;rounded=0;orthogonalLoop=1;jettySize=auto;html=1;" edge="1" parent="_PAgTlhUZ0fEvrbNNXJB-1" source="_PAgTlhUZ0fEvrbNNXJB-8" target="_PAgTlhUZ0fEvrbNNXJB-9">
          <mxGeometry relative="1" as="geometry" />
        </mxCell>
        <mxCell id="_PAgTlhUZ0fEvrbNNXJB-8" value="&lt;p style=&quot;margin: 0in; font-size: 14px;&quot;&gt;sc-dataorch-decisionflag-fn1-pre-get-function-name&lt;/p&gt;" style="text;strokeColor=none;align=center;fillColor=none;html=1;verticalAlign=middle;rounded=0;fontSize=14;fontStyle=1;fontFamily=Verdana;" vertex="1" parent="_PAgTlhUZ0fEvrbNNXJB-1">
          <mxGeometry x="120" y="278.5" width="290" height="30" as="geometry" />
        </mxCell>
        <mxCell id="_PAgTlhUZ0fEvrbNNXJB-9" value="" style="outlineConnect=0;dashed=0;verticalLabelPosition=bottom;verticalAlign=top;align=center;html=1;shape=mxgraph.aws3.lambda_function;fillColor=#F58534;gradientColor=none;" vertex="1" parent="_PAgTlhUZ0fEvrbNNXJB-1">
          <mxGeometry x="230.5" y="368.5" width="69" height="72" as="geometry" />
        </mxCell>
        <mxCell id="_PAgTlhUZ0fEvrbNNXJB-13" value="" style="edgeStyle=orthogonalEdgeStyle;rounded=0;orthogonalLoop=1;jettySize=auto;html=1;fontSize=14;" edge="1" parent="_PAgTlhUZ0fEvrbNNXJB-1" source="_PAgTlhUZ0fEvrbNNXJB-11" target="_PAgTlhUZ0fEvrbNNXJB-12">
          <mxGeometry relative="1" as="geometry" />
        </mxCell>
        <mxCell id="_PAgTlhUZ0fEvrbNNXJB-11" value="sc-dataorch-decisionflag-fn1-pre-get-function-query-status" style="text;strokeColor=none;align=center;fillColor=none;verticalAlign=middle;rounded=0;fontSize=14;fontFamily=Verdana;fontStyle=1;" vertex="1" parent="_PAgTlhUZ0fEvrbNNXJB-1">
          <mxGeometry x="120" y="448.5" width="290" height="30" as="geometry" />
        </mxCell>
        <mxCell id="_PAgTlhUZ0fEvrbNNXJB-15" value="" style="edgeStyle=orthogonalEdgeStyle;rounded=0;orthogonalLoop=1;jettySize=auto;html=1;fontSize=14;fillColor=#008a00;strokeColor=#005700;" edge="1" parent="_PAgTlhUZ0fEvrbNNXJB-1" source="_PAgTlhUZ0fEvrbNNXJB-12" target="_PAgTlhUZ0fEvrbNNXJB-14">
          <mxGeometry relative="1" as="geometry" />
        </mxCell>
        <mxCell id="_PAgTlhUZ0fEvrbNNXJB-17" value="" style="edgeStyle=orthogonalEdgeStyle;rounded=0;orthogonalLoop=1;jettySize=auto;html=1;fontSize=14;fillColor=#e51400;strokeColor=#B20000;" edge="1" parent="_PAgTlhUZ0fEvrbNNXJB-1" source="_PAgTlhUZ0fEvrbNNXJB-12" target="_PAgTlhUZ0fEvrbNNXJB-16">
          <mxGeometry relative="1" as="geometry" />
        </mxCell>
        <mxCell id="_PAgTlhUZ0fEvrbNNXJB-12" value="&lt;b&gt;&lt;font style=&quot;font-size: 14px;&quot;&gt;SUCCESS / FAIL&lt;/font&gt;&lt;/b&gt;" style="ellipse;whiteSpace=wrap;html=1;fillColor=#E3C800;strokeColor=default;gradientColor=none;" vertex="1" parent="_PAgTlhUZ0fEvrbNNXJB-1">
          <mxGeometry x="205" y="538.5" width="120" height="80" as="geometry" />
        </mxCell>
        <mxCell id="_PAgTlhUZ0fEvrbNNXJB-14" value="" style="outlineConnect=0;dashed=0;verticalLabelPosition=bottom;verticalAlign=top;align=center;html=1;shape=mxgraph.aws3.lambda_function;fillColor=#F58534;gradientColor=none;" vertex="1" parent="_PAgTlhUZ0fEvrbNNXJB-1">
          <mxGeometry x="450" y="542.5" width="69" height="72" as="geometry" />
        </mxCell>
        <mxCell id="_PAgTlhUZ0fEvrbNNXJB-16" value="Send Failure Notification with Failure Reason" style="rounded=1;whiteSpace=wrap;html=1;labelBackgroundColor=none;labelBorderColor=none;fontFamily=Verdana;fontSize=14;fillColor=#ff0000;fontColor=#ffffff;strokeColor=#B20000;gradientColor=none;fontStyle=1" vertex="1" parent="_PAgTlhUZ0fEvrbNNXJB-1">
          <mxGeometry x="205" y="678.5" width="120" height="93" as="geometry" />
        </mxCell>
        <mxCell id="_PAgTlhUZ0fEvrbNNXJB-18" value="&lt;p style=&quot;line-height: 100%; font-size: 14px;&quot;&gt;FAIL&lt;/p&gt;" style="text;strokeColor=none;align=center;fillColor=none;html=1;verticalAlign=middle;whiteSpace=wrap;rounded=0;fontSize=14;rotation=0;horizontal=1;fontStyle=1" vertex="1" parent="_PAgTlhUZ0fEvrbNNXJB-1">
          <mxGeometry x="264" y="628.5" width="40" height="30" as="geometry" />
        </mxCell>
        <mxCell id="_PAgTlhUZ0fEvrbNNXJB-19" value="SUCCESS" style="text;strokeColor=none;align=center;fillColor=none;html=1;verticalAlign=middle;whiteSpace=wrap;rounded=0;fontSize=14;strokeWidth=1;shadow=0;glass=0;fontStyle=1" vertex="1" parent="_PAgTlhUZ0fEvrbNNXJB-1">
          <mxGeometry x="360" y="548.5" width="60" height="30" as="geometry" />
        </mxCell>
        <mxCell id="_PAgTlhUZ0fEvrbNNXJB-20" value="sc-dataorch-decisionflag-fn1-pre-get-results-functions" style="text;strokeColor=none;align=center;fillColor=none;verticalAlign=middle;rounded=0;fontSize=14;fontFamily=Verdana;fontStyle=1;whiteSpace=wrap;" vertex="1" parent="_PAgTlhUZ0fEvrbNNXJB-1">
          <mxGeometry x="334.5" y="618.5" width="300" height="30" as="geometry" />
        </mxCell>
        <mxCell id="_PAgTlhUZ0fEvrbNNXJB-25" value="" style="edgeStyle=orthogonalEdgeStyle;rounded=0;orthogonalLoop=1;jettySize=auto;html=1;fontSize=14;" edge="1" parent="_PAgTlhUZ0fEvrbNNXJB-1" source="_PAgTlhUZ0fEvrbNNXJB-21" target="_PAgTlhUZ0fEvrbNNXJB-24">
          <mxGeometry relative="1" as="geometry" />
        </mxCell>
        <mxCell id="_PAgTlhUZ0fEvrbNNXJB-21" value="" style="outlineConnect=0;dashed=0;verticalLabelPosition=bottom;verticalAlign=top;align=center;html=1;shape=mxgraph.aws3.lambda_function;fillColor=#F58534;gradientColor=none;" vertex="1" parent="_PAgTlhUZ0fEvrbNNXJB-1">
          <mxGeometry x="770" y="542.5" width="69" height="72" as="geometry" />
        </mxCell>
        <mxCell id="_PAgTlhUZ0fEvrbNNXJB-22" value="sc-dataorch-decisionflag-fn2-pre-execute-functions" style="text;strokeColor=none;align=center;fillColor=none;verticalAlign=middle;rounded=0;fontSize=14;fontFamily=Verdana;whiteSpace=wrap;fontStyle=1" vertex="1" parent="_PAgTlhUZ0fEvrbNNXJB-1">
          <mxGeometry x="654.5" y="618.5" width="300" height="30" as="geometry" />
        </mxCell>
        <mxCell id="_PAgTlhUZ0fEvrbNNXJB-23" value="" style="endArrow=classic;html=1;rounded=0;fontSize=14;exitX=1;exitY=0.5;exitDx=0;exitDy=0;exitPerimeter=0;" edge="1" parent="_PAgTlhUZ0fEvrbNNXJB-1" source="_PAgTlhUZ0fEvrbNNXJB-14" target="_PAgTlhUZ0fEvrbNNXJB-21">
          <mxGeometry width="50" height="50" relative="1" as="geometry">
            <mxPoint x="580" y="658.5" as="sourcePoint" />
            <mxPoint x="630" y="608.5" as="targetPoint" />
          </mxGeometry>
        </mxCell>
        <mxCell id="_PAgTlhUZ0fEvrbNNXJB-28" style="edgeStyle=orthogonalEdgeStyle;rounded=0;orthogonalLoop=1;jettySize=auto;html=1;entryX=0;entryY=0.5;entryDx=0;entryDy=0;fontSize=14;" edge="1" parent="_PAgTlhUZ0fEvrbNNXJB-1" source="_PAgTlhUZ0fEvrbNNXJB-24" target="_PAgTlhUZ0fEvrbNNXJB-27">
          <mxGeometry relative="1" as="geometry" />
        </mxCell>
        <mxCell id="_PAgTlhUZ0fEvrbNNXJB-24" value="" style="outlineConnect=0;dashed=0;verticalLabelPosition=bottom;verticalAlign=top;align=center;html=1;shape=mxgraph.aws3.lambda_function;fillColor=#F58534;gradientColor=none;" vertex="1" parent="_PAgTlhUZ0fEvrbNNXJB-1">
          <mxGeometry x="1130" y="542.5" width="69" height="72" as="geometry" />
        </mxCell>
        <mxCell id="_PAgTlhUZ0fEvrbNNXJB-26" value="sc-dataorch-decisionflag-fn2-pre-functions-status-check" style="text;strokeColor=none;align=center;fillColor=none;verticalAlign=middle;whiteSpace=wrap;rounded=0;fontSize=14;fontFamily=Verdana;fontStyle=1" vertex="1" parent="_PAgTlhUZ0fEvrbNNXJB-1">
          <mxGeometry x="1014.5" y="618.5" width="300" height="30" as="geometry" />
        </mxCell>
        <mxCell id="_PAgTlhUZ0fEvrbNNXJB-33" style="edgeStyle=orthogonalEdgeStyle;rounded=0;orthogonalLoop=1;jettySize=auto;html=1;entryX=0;entryY=0.5;entryDx=0;entryDy=0;entryPerimeter=0;fontSize=14;fillColor=#008a00;strokeColor=#005700;exitX=1;exitY=0.5;exitDx=0;exitDy=0;" edge="1" parent="_PAgTlhUZ0fEvrbNNXJB-1" source="_PAgTlhUZ0fEvrbNNXJB-27" target="_PAgTlhUZ0fEvrbNNXJB-32">
          <mxGeometry relative="1" as="geometry">
            <mxPoint x="1510" y="578.4999999999998" as="sourcePoint" />
          </mxGeometry>
        </mxCell>
        <mxCell id="_PAgTlhUZ0fEvrbNNXJB-35" style="edgeStyle=orthogonalEdgeStyle;rounded=0;orthogonalLoop=1;jettySize=auto;html=1;entryX=0.5;entryY=0;entryDx=0;entryDy=0;fontSize=14;fillColor=#e51400;strokeColor=#B20000;" edge="1" parent="_PAgTlhUZ0fEvrbNNXJB-1" source="_PAgTlhUZ0fEvrbNNXJB-27" target="_PAgTlhUZ0fEvrbNNXJB-34">
          <mxGeometry relative="1" as="geometry" />
        </mxCell>
        <mxCell id="_PAgTlhUZ0fEvrbNNXJB-27" value="&lt;b&gt;&lt;font style=&quot;font-size: 14px;&quot;&gt;SUCCESS / FAIL&lt;/font&gt;&lt;/b&gt;" style="ellipse;whiteSpace=wrap;html=1;fillColor=#E3C800;strokeColor=default;gradientColor=none;" vertex="1" parent="_PAgTlhUZ0fEvrbNNXJB-1">
          <mxGeometry x="1350" y="538.5" width="120" height="80" as="geometry" />
        </mxCell>
        <mxCell id="_PAgTlhUZ0fEvrbNNXJB-42" style="edgeStyle=orthogonalEdgeStyle;rounded=0;orthogonalLoop=1;jettySize=auto;html=1;entryX=0;entryY=0.5;entryDx=0;entryDy=0;entryPerimeter=0;fontSize=14;" edge="1" parent="_PAgTlhUZ0fEvrbNNXJB-1" source="_PAgTlhUZ0fEvrbNNXJB-32" target="_PAgTlhUZ0fEvrbNNXJB-41">
          <mxGeometry relative="1" as="geometry" />
        </mxCell>
        <mxCell id="_PAgTlhUZ0fEvrbNNXJB-32" value="" style="outlineConnect=0;dashed=0;verticalLabelPosition=bottom;verticalAlign=top;align=center;html=1;shape=mxgraph.aws3.lambda_function;fillColor=#F58534;gradientColor=none;" vertex="1" parent="_PAgTlhUZ0fEvrbNNXJB-1">
          <mxGeometry x="1640" y="542.5" width="69" height="72" as="geometry" />
        </mxCell>
        <mxCell id="_PAgTlhUZ0fEvrbNNXJB-34" value="Send Failure Notification with Failure Reason" style="rounded=1;whiteSpace=wrap;html=1;labelBackgroundColor=none;labelBorderColor=none;fontFamily=Verdana;fontSize=14;fillColor=#ff0000;fontColor=#ffffff;strokeColor=#B20000;gradientColor=none;fontStyle=1" vertex="1" parent="_PAgTlhUZ0fEvrbNNXJB-1">
          <mxGeometry x="1350" y="668.5" width="120" height="93" as="geometry" />
        </mxCell>
        <mxCell id="_PAgTlhUZ0fEvrbNNXJB-36" value="&lt;p style=&quot;line-height: 100%; font-size: 14px;&quot;&gt;FAIL&lt;/p&gt;" style="text;strokeColor=none;align=center;fillColor=none;html=1;verticalAlign=middle;whiteSpace=wrap;rounded=0;fontSize=14;rotation=0;horizontal=1;fontStyle=1" vertex="1" parent="_PAgTlhUZ0fEvrbNNXJB-1">
          <mxGeometry x="1410" y="628.5" width="40" height="30" as="geometry" />
        </mxCell>
        <mxCell id="_PAgTlhUZ0fEvrbNNXJB-37" value="SUCCESS" style="text;strokeColor=none;align=center;fillColor=none;html=1;verticalAlign=middle;whiteSpace=wrap;rounded=0;fontSize=14;strokeWidth=1;shadow=0;glass=0;fontStyle=1" vertex="1" parent="_PAgTlhUZ0fEvrbNNXJB-1">
          <mxGeometry x="1520" y="548.5" width="60" height="30" as="geometry" />
        </mxCell>
        <mxCell id="_PAgTlhUZ0fEvrbNNXJB-38" value="sc-dataorch-decisionflag-fn2-pre-functions-flag-check" style="text;strokeColor=none;align=center;fillColor=none;verticalAlign=middle;whiteSpace=wrap;rounded=0;fontSize=14;fontFamily=Verdana;fontStyle=1" vertex="1" parent="_PAgTlhUZ0fEvrbNNXJB-1">
          <mxGeometry x="1524.5" y="618.5" width="300" height="30" as="geometry" />
        </mxCell>
        <mxCell id="_PAgTlhUZ0fEvrbNNXJB-46" style="edgeStyle=orthogonalEdgeStyle;rounded=0;orthogonalLoop=1;jettySize=auto;html=1;entryX=0;entryY=0.5;entryDx=0;entryDy=0;entryPerimeter=0;fontSize=14;" edge="1" parent="_PAgTlhUZ0fEvrbNNXJB-1" source="_PAgTlhUZ0fEvrbNNXJB-41" target="_PAgTlhUZ0fEvrbNNXJB-44">
          <mxGeometry relative="1" as="geometry" />
        </mxCell>
        <mxCell id="_PAgTlhUZ0fEvrbNNXJB-41" value="" style="outlineConnect=0;dashed=0;verticalLabelPosition=bottom;verticalAlign=top;align=center;html=1;shape=mxgraph.aws3.lambda_function;fillColor=#F58534;gradientColor=none;" vertex="1" parent="_PAgTlhUZ0fEvrbNNXJB-1">
          <mxGeometry x="1950" y="542.5" width="69" height="72" as="geometry" />
        </mxCell>
        <mxCell id="_PAgTlhUZ0fEvrbNNXJB-43" value="sc-dataorch-decisionflag-fn2-pre-functions-flag-check" style="text;strokeColor=none;align=center;fillColor=none;verticalAlign=middle;whiteSpace=wrap;rounded=0;fontSize=14;fontFamily=Verdana;fontStyle=1" vertex="1" parent="_PAgTlhUZ0fEvrbNNXJB-1">
          <mxGeometry x="1834.5" y="618.5" width="300" height="30" as="geometry" />
        </mxCell>
        <mxCell id="_PAgTlhUZ0fEvrbNNXJB-53" style="edgeStyle=orthogonalEdgeStyle;rounded=0;orthogonalLoop=1;jettySize=auto;html=1;entryX=0;entryY=0.5;entryDx=0;entryDy=0;fontSize=14;" edge="1" parent="_PAgTlhUZ0fEvrbNNXJB-1" source="_PAgTlhUZ0fEvrbNNXJB-44" target="_PAgTlhUZ0fEvrbNNXJB-51">
          <mxGeometry relative="1" as="geometry" />
        </mxCell>
        <mxCell id="_PAgTlhUZ0fEvrbNNXJB-44" value="" style="outlineConnect=0;dashed=0;verticalLabelPosition=bottom;verticalAlign=top;align=center;html=1;shape=mxgraph.aws3.lambda_function;fillColor=#F58534;gradientColor=none;" vertex="1" parent="_PAgTlhUZ0fEvrbNNXJB-1">
          <mxGeometry x="2285.5" y="542.5" width="69" height="72" as="geometry" />
        </mxCell>
        <mxCell id="_PAgTlhUZ0fEvrbNNXJB-47" value="sc-dataorch-decisionflag-fn3-pre-flag-check-status-update-query" style="text;strokeColor=none;align=center;fillColor=none;verticalAlign=middle;whiteSpace=wrap;rounded=0;fontSize=14;fontStyle=1;fontFamily=Verdana;" vertex="1" parent="_PAgTlhUZ0fEvrbNNXJB-1">
          <mxGeometry x="2170" y="618.5" width="300" height="30" as="geometry" />
        </mxCell>
        <mxCell id="_PAgTlhUZ0fEvrbNNXJB-57" style="edgeStyle=orthogonalEdgeStyle;rounded=0;orthogonalLoop=1;jettySize=auto;html=1;entryX=0.5;entryY=0;entryDx=0;entryDy=0;fontSize=14;" edge="1" parent="_PAgTlhUZ0fEvrbNNXJB-1" source="_PAgTlhUZ0fEvrbNNXJB-51" target="_PAgTlhUZ0fEvrbNNXJB-54">
          <mxGeometry relative="1" as="geometry" />
        </mxCell>
        <mxCell id="_PAgTlhUZ0fEvrbNNXJB-51" value="&lt;b&gt;&lt;font style=&quot;font-size: 14px;&quot;&gt;SUCCESS / FAIL&lt;/font&gt;&lt;/b&gt;" style="ellipse;whiteSpace=wrap;html=1;fillColor=#E3C800;strokeColor=default;gradientColor=none;" vertex="1" parent="_PAgTlhUZ0fEvrbNNXJB-1">
          <mxGeometry x="2520" y="538.5" width="120" height="80" as="geometry" />
        </mxCell>
        <mxCell id="_PAgTlhUZ0fEvrbNNXJB-54" value="Send Failure Notification with Failure Reason" style="rounded=1;whiteSpace=wrap;html=1;labelBackgroundColor=none;labelBorderColor=none;fontFamily=Verdana;fontSize=14;fillColor=#ff0000;fontColor=#ffffff;strokeColor=#B20000;gradientColor=none;fontStyle=1" vertex="1" parent="_PAgTlhUZ0fEvrbNNXJB-1">
          <mxGeometry x="2520" y="668.5" width="120" height="93" as="geometry" />
        </mxCell>
        <mxCell id="_PAgTlhUZ0fEvrbNNXJB-56" value="&lt;p style=&quot;line-height: 100%; font-size: 14px;&quot;&gt;FAIL&lt;/p&gt;" style="text;strokeColor=none;align=center;fillColor=none;html=1;verticalAlign=middle;whiteSpace=wrap;rounded=0;fontSize=14;rotation=0;horizontal=1;fontStyle=1" vertex="1" parent="_PAgTlhUZ0fEvrbNNXJB-1">
          <mxGeometry x="2590" y="628.5" width="40" height="30" as="geometry" />
        </mxCell>
        <mxCell id="_PAgTlhUZ0fEvrbNNXJB-59" value="&lt;b style=&quot;font-size: 24px;&quot;&gt;MAP FLOW&lt;/b&gt;" style="text;strokeColor=default;align=center;fillColor=none;html=1;verticalAlign=middle;whiteSpace=wrap;rounded=1;fontSize=24;dashed=1;dashPattern=12 12;shadow=1;glass=0;perimeterSpacing=23;strokeWidth=2;spacingTop=30;spacing=15;spacingBottom=30;" vertex="1" parent="_PAgTlhUZ0fEvrbNNXJB-1">
          <mxGeometry x="1347.5" y="270.5" width="705" height="70" as="geometry" />
        </mxCell>
        <mxCell id="_PAgTlhUZ0fEvrbNNXJB-61" value="&lt;h1 style=&quot;border-color: var(--border-color);&quot;&gt;&lt;span style=&quot;border-color: var(--border-color);&quot;&gt;&lt;font style=&quot;font-size: 23px;&quot;&gt;Precheck Step Function Work Flow For Redshift (Decision Flag)&lt;/font&gt;&lt;/span&gt;&lt;/h1&gt;" style="text;strokeColor=#10739e;align=center;fillColor=#25d4a9;html=1;verticalAlign=middle;whiteSpace=wrap;rounded=0;gradientColor=none;fontSize=14;fontStyle=1" vertex="1" parent="1">
          <mxGeometry x="1095" y="-10" width="890" height="80" as="geometry" />
        </mxCell>
        <mxCell id="_PAgTlhUZ0fEvrbNNXJB-64" style="edgeStyle=orthogonalEdgeStyle;rounded=0;orthogonalLoop=1;jettySize=auto;html=1;entryX=0;entryY=0;entryDx=0;entryDy=0;fontFamily=Verdana;fontSize=14;exitX=1;exitY=1;exitDx=0;exitDy=0;exitPerimeter=0;" edge="1" parent="1" source="_PAgTlhUZ0fEvrbNNXJB-62" target="_PAgTlhUZ0fEvrbNNXJB-1">
          <mxGeometry relative="1" as="geometry" />
        </mxCell>
        <mxCell id="_PAgTlhUZ0fEvrbNNXJB-62" value="" style="sketch=0;points=[[0,0,0],[0.25,0,0],[0.5,0,0],[0.75,0,0],[1,0,0],[0,1,0],[0.25,1,0],[0.5,1,0],[0.75,1,0],[1,1,0],[0,0.25,0],[0,0.5,0],[0,0.75,0],[1,0.25,0],[1,0.5,0],[1,0.75,0]];outlineConnect=0;fontColor=#232F3E;gradientColor=#FF4F8B;gradientDirection=north;fillColor=#BC1356;strokeColor=#ffffff;dashed=0;verticalLabelPosition=bottom;verticalAlign=top;align=center;html=1;fontSize=14;fontStyle=1;aspect=fixed;shape=mxgraph.aws4.resourceIcon;resIcon=mxgraph.aws4.eventbridge;rounded=0;shadow=0;glass=0;strokeWidth=1;fontFamily=Helvetica;opacity=90;" vertex="1" parent="1">
          <mxGeometry x="12" y="-80" width="78" height="78" as="geometry" />
        </mxCell>
        <mxCell id="_PAgTlhUZ0fEvrbNNXJB-63" value="Event Bridge to start precheck as per Trig Crono " style="text;strokeColor=none;align=center;fillColor=none;verticalAlign=middle;whiteSpace=wrap;rounded=0;fontSize=14;fontFamily=Verdana;fontColor=#000000;fontStyle=1" vertex="1" parent="1">
          <mxGeometry x="-74" y="-130" width="250" height="30" as="geometry" />
        </mxCell>
        <mxCell id="_PAgTlhUZ0fEvrbNNXJB-65" value="" style="sketch=0;points=[[0,0,0],[0.25,0,0],[0.5,0,0],[0.75,0,0],[1,0,0],[0,1,0],[0.25,1,0],[0.5,1,0],[0.75,1,0],[1,1,0],[0,0.25,0],[0,0.5,0],[0,0.75,0],[1,0.25,0],[1,0.5,0],[1,0.75,0]];outlineConnect=0;fontColor=#232F3E;gradientColor=#FF4F8B;gradientDirection=north;fillColor=#BC1356;strokeColor=#ffffff;dashed=0;verticalLabelPosition=bottom;verticalAlign=top;align=center;html=1;fontSize=14;fontStyle=1;aspect=fixed;shape=mxgraph.aws4.resourceIcon;resIcon=mxgraph.aws4.eventbridge;rounded=0;shadow=0;glass=0;strokeWidth=1;fontFamily=Helvetica;opacity=90;" vertex="1" parent="1">
          <mxGeometry x="2990" y="980" width="78" height="78" as="geometry" />
        </mxCell>
        <mxCell id="_PAgTlhUZ0fEvrbNNXJB-66" value="Event Bridge to start Execution Step Function" style="text;strokeColor=none;align=center;fillColor=none;verticalAlign=middle;whiteSpace=wrap;rounded=0;fontSize=14;fontFamily=Verdana;fontColor=#000000;fontStyle=1" vertex="1" parent="1">
          <mxGeometry x="2904" y="1080" width="250" height="30" as="geometry" />
        </mxCell>
        <mxCell id="_PAgTlhUZ0fEvrbNNXJB-69" value="" style="endArrow=classic;html=1;rounded=0;fontFamily=Verdana;fontSize=14;entryX=0;entryY=0;entryDx=0;entryDy=0;entryPerimeter=0;exitX=1;exitY=1;exitDx=0;exitDy=0;" edge="1" parent="1" source="_PAgTlhUZ0fEvrbNNXJB-1" target="_PAgTlhUZ0fEvrbNNXJB-65">
          <mxGeometry width="50" height="50" relative="1" as="geometry">
            <mxPoint x="3780" y="960" as="sourcePoint" />
            <mxPoint x="3830" y="910" as="targetPoint" />
          </mxGeometry>
        </mxCell>
      </root>
    </mxGraphModel>
  </diagram>
</mxfile>
